<mxfile host="app.diagrams.net" agent="Mozilla/5.0 (Windows NT 10.0; Win64; x64) AppleWebKit/537.36 (KHTML, like Gecko) Chrome/131.0.0.0 Safari/537.36" version="26.0.6" pages="2">
  <diagram name="페이지-1" id="4D1PXjhJ14Ys0FB_cjgP">
    <mxGraphModel dx="683" dy="371" grid="1" gridSize="10" guides="1" tooltips="1" connect="1" arrows="1" fold="1" page="1" pageScale="1" pageWidth="827" pageHeight="1169" math="0" shadow="0">
      <root>
        <mxCell id="0" />
        <mxCell id="1" parent="0" />
        <mxCell id="JrVokdhGePlw0w1_8iaF-29" value="" style="rounded=0;whiteSpace=wrap;html=1;" vertex="1" parent="1">
          <mxGeometry x="600" y="160" width="140" height="170" as="geometry" />
        </mxCell>
        <mxCell id="JrVokdhGePlw0w1_8iaF-23" value="" style="rounded=0;whiteSpace=wrap;html=1;" vertex="1" parent="1">
          <mxGeometry x="450" y="160" width="130" height="170" as="geometry" />
        </mxCell>
        <mxCell id="JrVokdhGePlw0w1_8iaF-15" value="" style="rounded=0;whiteSpace=wrap;html=1;" vertex="1" parent="1">
          <mxGeometry x="280" y="160" width="150" height="110" as="geometry" />
        </mxCell>
        <mxCell id="JrVokdhGePlw0w1_8iaF-13" value="" style="rounded=0;whiteSpace=wrap;html=1;" vertex="1" parent="1">
          <mxGeometry x="100" y="160" width="160" height="200" as="geometry" />
        </mxCell>
        <mxCell id="JrVokdhGePlw0w1_8iaF-1" value="애완용품 구매&amp;nbsp;" style="text;html=1;align=center;verticalAlign=middle;resizable=0;points=[];autosize=1;strokeColor=none;fillColor=none;" vertex="1" parent="1">
          <mxGeometry x="364" y="60" width="100" height="30" as="geometry" />
        </mxCell>
        <mxCell id="JrVokdhGePlw0w1_8iaF-2" value="회원" style="text;html=1;align=center;verticalAlign=middle;resizable=0;points=[];autosize=1;strokeColor=none;fillColor=none;" vertex="1" parent="1">
          <mxGeometry x="110" y="168" width="50" height="30" as="geometry" />
        </mxCell>
        <mxCell id="JrVokdhGePlw0w1_8iaF-3" value="비회원" style="text;html=1;align=center;verticalAlign=middle;resizable=0;points=[];autosize=1;strokeColor=none;fillColor=none;" vertex="1" parent="1">
          <mxGeometry x="280" y="170" width="60" height="30" as="geometry" />
        </mxCell>
        <mxCell id="JrVokdhGePlw0w1_8iaF-4" value="판매자" style="text;html=1;align=center;verticalAlign=middle;resizable=0;points=[];autosize=1;strokeColor=none;fillColor=none;" vertex="1" parent="1">
          <mxGeometry x="450" y="168" width="60" height="30" as="geometry" />
        </mxCell>
        <mxCell id="JrVokdhGePlw0w1_8iaF-5" value="관리자" style="text;html=1;align=center;verticalAlign=middle;resizable=0;points=[];autosize=1;strokeColor=none;fillColor=none;" vertex="1" parent="1">
          <mxGeometry x="600" y="168" width="60" height="30" as="geometry" />
        </mxCell>
        <mxCell id="JrVokdhGePlw0w1_8iaF-6" value="애완용품 전체 조회" style="text;html=1;align=center;verticalAlign=middle;resizable=0;points=[];autosize=1;strokeColor=none;fillColor=none;" vertex="1" parent="1">
          <mxGeometry x="110" y="198" width="130" height="30" as="geometry" />
        </mxCell>
        <mxCell id="JrVokdhGePlw0w1_8iaF-7" value="애완용품 키워드 조회" style="text;html=1;align=center;verticalAlign=middle;resizable=0;points=[];autosize=1;strokeColor=none;fillColor=none;" vertex="1" parent="1">
          <mxGeometry x="110" y="228" width="140" height="30" as="geometry" />
        </mxCell>
        <mxCell id="JrVokdhGePlw0w1_8iaF-8" value="애완용품 전체 조회" style="text;html=1;align=center;verticalAlign=middle;resizable=0;points=[];autosize=1;strokeColor=none;fillColor=none;" vertex="1" parent="1">
          <mxGeometry x="280" y="200" width="130" height="30" as="geometry" />
        </mxCell>
        <mxCell id="JrVokdhGePlw0w1_8iaF-9" value="애완용품 키워드 조회" style="text;html=1;align=center;verticalAlign=middle;resizable=0;points=[];autosize=1;strokeColor=none;fillColor=none;" vertex="1" parent="1">
          <mxGeometry x="280" y="230" width="140" height="30" as="geometry" />
        </mxCell>
        <mxCell id="JrVokdhGePlw0w1_8iaF-10" value="애완용품 구매" style="text;html=1;align=center;verticalAlign=middle;resizable=0;points=[];autosize=1;strokeColor=none;fillColor=none;" vertex="1" parent="1">
          <mxGeometry x="110" y="258" width="100" height="30" as="geometry" />
        </mxCell>
        <mxCell id="JrVokdhGePlw0w1_8iaF-11" value="애완용품 구매 취소" style="text;html=1;align=center;verticalAlign=middle;resizable=0;points=[];autosize=1;strokeColor=none;fillColor=none;" vertex="1" parent="1">
          <mxGeometry x="110" y="290" width="130" height="30" as="geometry" />
        </mxCell>
        <mxCell id="JrVokdhGePlw0w1_8iaF-12" value="애완용품 구매 수정" style="text;html=1;align=center;verticalAlign=middle;resizable=0;points=[];autosize=1;strokeColor=none;fillColor=none;" vertex="1" parent="1">
          <mxGeometry x="110" y="320" width="130" height="30" as="geometry" />
        </mxCell>
        <mxCell id="JrVokdhGePlw0w1_8iaF-14" value="애완용품 구매 서비스" style="text;html=1;align=center;verticalAlign=middle;resizable=0;points=[];autosize=1;strokeColor=none;fillColor=none;" vertex="1" parent="1">
          <mxGeometry x="340" y="118" width="140" height="30" as="geometry" />
        </mxCell>
        <mxCell id="JrVokdhGePlw0w1_8iaF-17" value="애완용품 등록" style="text;html=1;align=center;verticalAlign=middle;resizable=0;points=[];autosize=1;strokeColor=none;fillColor=none;" vertex="1" parent="1">
          <mxGeometry x="450" y="198" width="100" height="30" as="geometry" />
        </mxCell>
        <mxCell id="JrVokdhGePlw0w1_8iaF-19" value="애완용품 정보 수정" style="text;html=1;align=center;verticalAlign=middle;resizable=0;points=[];autosize=1;strokeColor=none;fillColor=none;" vertex="1" parent="1">
          <mxGeometry x="450" y="228" width="130" height="30" as="geometry" />
        </mxCell>
        <mxCell id="JrVokdhGePlw0w1_8iaF-20" value="애완용품 정보 삭제" style="text;html=1;align=center;verticalAlign=middle;resizable=0;points=[];autosize=1;strokeColor=none;fillColor=none;" vertex="1" parent="1">
          <mxGeometry x="450" y="258" width="130" height="30" as="geometry" />
        </mxCell>
        <mxCell id="JrVokdhGePlw0w1_8iaF-21" value="애완용품 정보 조회" style="text;html=1;align=center;verticalAlign=middle;resizable=0;points=[];autosize=1;strokeColor=none;fillColor=none;" vertex="1" parent="1">
          <mxGeometry x="450" y="288" width="130" height="30" as="geometry" />
        </mxCell>
        <mxCell id="JrVokdhGePlw0w1_8iaF-25" value="등록된 상품 목록 조회" style="text;html=1;align=center;verticalAlign=middle;resizable=0;points=[];autosize=1;strokeColor=none;fillColor=none;" vertex="1" parent="1">
          <mxGeometry x="600" y="198" width="140" height="30" as="geometry" />
        </mxCell>
        <mxCell id="JrVokdhGePlw0w1_8iaF-26" value="등록된 상품 수정" style="text;html=1;align=center;verticalAlign=middle;resizable=0;points=[];autosize=1;strokeColor=none;fillColor=none;" vertex="1" parent="1">
          <mxGeometry x="600" y="228" width="110" height="30" as="geometry" />
        </mxCell>
        <mxCell id="JrVokdhGePlw0w1_8iaF-27" value="등록된 상품 삭제" style="text;html=1;align=center;verticalAlign=middle;resizable=0;points=[];autosize=1;strokeColor=none;fillColor=none;" vertex="1" parent="1">
          <mxGeometry x="600" y="258" width="110" height="30" as="geometry" />
        </mxCell>
        <mxCell id="JrVokdhGePlw0w1_8iaF-28" value="상품 등록" style="text;html=1;align=center;verticalAlign=middle;resizable=0;points=[];autosize=1;strokeColor=none;fillColor=none;" vertex="1" parent="1">
          <mxGeometry x="600" y="288" width="70" height="30" as="geometry" />
        </mxCell>
        <mxCell id="JrVokdhGePlw0w1_8iaF-30" value="애완 용품 구매 서비스" style="swimlane;whiteSpace=wrap;html=1;" vertex="1" parent="1">
          <mxGeometry x="110" y="460" width="590" height="260" as="geometry" />
        </mxCell>
        <mxCell id="JrVokdhGePlw0w1_8iaF-31" value="애완용품 전체 조회" style="text;html=1;align=center;verticalAlign=middle;resizable=0;points=[];autosize=1;strokeColor=none;fillColor=none;" vertex="1" parent="JrVokdhGePlw0w1_8iaF-30">
          <mxGeometry x="10" y="80" width="130" height="30" as="geometry" />
        </mxCell>
        <mxCell id="JrVokdhGePlw0w1_8iaF-32" value="애완용품 키워드 조회" style="text;html=1;align=center;verticalAlign=middle;resizable=0;points=[];autosize=1;strokeColor=none;fillColor=none;" vertex="1" parent="JrVokdhGePlw0w1_8iaF-30">
          <mxGeometry x="10" y="110" width="140" height="30" as="geometry" />
        </mxCell>
        <mxCell id="JrVokdhGePlw0w1_8iaF-33" value="애완용품 구매" style="text;html=1;align=center;verticalAlign=middle;resizable=0;points=[];autosize=1;strokeColor=none;fillColor=none;" vertex="1" parent="JrVokdhGePlw0w1_8iaF-30">
          <mxGeometry x="10" y="140" width="100" height="30" as="geometry" />
        </mxCell>
        <mxCell id="JrVokdhGePlw0w1_8iaF-34" value="애완용품 구매 취소" style="text;html=1;align=center;verticalAlign=middle;resizable=0;points=[];autosize=1;strokeColor=none;fillColor=none;" vertex="1" parent="JrVokdhGePlw0w1_8iaF-30">
          <mxGeometry x="10" y="172" width="130" height="30" as="geometry" />
        </mxCell>
        <mxCell id="JrVokdhGePlw0w1_8iaF-35" value="애완용품 구매 수정" style="text;html=1;align=center;verticalAlign=middle;resizable=0;points=[];autosize=1;strokeColor=none;fillColor=none;" vertex="1" parent="JrVokdhGePlw0w1_8iaF-30">
          <mxGeometry x="10" y="202" width="130" height="30" as="geometry" />
        </mxCell>
        <mxCell id="JrVokdhGePlw0w1_8iaF-38" value="애완용품 등록" style="text;html=1;align=center;verticalAlign=middle;resizable=0;points=[];autosize=1;strokeColor=none;fillColor=none;" vertex="1" parent="JrVokdhGePlw0w1_8iaF-30">
          <mxGeometry x="210" y="90" width="100" height="30" as="geometry" />
        </mxCell>
        <mxCell id="JrVokdhGePlw0w1_8iaF-39" value="애완용품 정보 수정" style="text;html=1;align=center;verticalAlign=middle;resizable=0;points=[];autosize=1;strokeColor=none;fillColor=none;" vertex="1" parent="JrVokdhGePlw0w1_8iaF-30">
          <mxGeometry x="210" y="120" width="130" height="30" as="geometry" />
        </mxCell>
        <mxCell id="JrVokdhGePlw0w1_8iaF-40" value="애완용품 정보 삭제" style="text;html=1;align=center;verticalAlign=middle;resizable=0;points=[];autosize=1;strokeColor=none;fillColor=none;" vertex="1" parent="JrVokdhGePlw0w1_8iaF-30">
          <mxGeometry x="210" y="150" width="130" height="30" as="geometry" />
        </mxCell>
        <mxCell id="JrVokdhGePlw0w1_8iaF-41" value="애완용품 정보 조회" style="text;html=1;align=center;verticalAlign=middle;resizable=0;points=[];autosize=1;strokeColor=none;fillColor=none;" vertex="1" parent="JrVokdhGePlw0w1_8iaF-30">
          <mxGeometry x="210" y="180" width="130" height="30" as="geometry" />
        </mxCell>
        <mxCell id="JrVokdhGePlw0w1_8iaF-42" value="등록된 상품 목록 조회" style="text;html=1;align=center;verticalAlign=middle;resizable=0;points=[];autosize=1;strokeColor=none;fillColor=none;" vertex="1" parent="JrVokdhGePlw0w1_8iaF-30">
          <mxGeometry x="440" y="80" width="140" height="30" as="geometry" />
        </mxCell>
        <mxCell id="JrVokdhGePlw0w1_8iaF-43" value="등록된 상품 수정" style="text;html=1;align=center;verticalAlign=middle;resizable=0;points=[];autosize=1;strokeColor=none;fillColor=none;" vertex="1" parent="JrVokdhGePlw0w1_8iaF-30">
          <mxGeometry x="440" y="110" width="110" height="30" as="geometry" />
        </mxCell>
        <mxCell id="JrVokdhGePlw0w1_8iaF-44" value="등록된 상품 삭제" style="text;html=1;align=center;verticalAlign=middle;resizable=0;points=[];autosize=1;strokeColor=none;fillColor=none;" vertex="1" parent="JrVokdhGePlw0w1_8iaF-30">
          <mxGeometry x="440" y="140" width="110" height="30" as="geometry" />
        </mxCell>
        <mxCell id="JrVokdhGePlw0w1_8iaF-45" value="상품 등록" style="text;html=1;align=center;verticalAlign=middle;resizable=0;points=[];autosize=1;strokeColor=none;fillColor=none;" vertex="1" parent="JrVokdhGePlw0w1_8iaF-30">
          <mxGeometry x="440" y="170" width="70" height="30" as="geometry" />
        </mxCell>
        <mxCell id="JrVokdhGePlw0w1_8iaF-46" value="인증 서비스" style="text;html=1;align=center;verticalAlign=middle;resizable=0;points=[];autosize=1;strokeColor=none;fillColor=none;" vertex="1" parent="1">
          <mxGeometry x="1151" y="118" width="90" height="30" as="geometry" />
        </mxCell>
        <mxCell id="JrVokdhGePlw0w1_8iaF-47" value="로그인&amp;nbsp;" style="text;html=1;align=center;verticalAlign=middle;resizable=0;points=[];autosize=1;strokeColor=none;fillColor=none;" vertex="1" parent="1">
          <mxGeometry x="1070" y="160" width="60" height="30" as="geometry" />
        </mxCell>
        <mxCell id="JrVokdhGePlw0w1_8iaF-48" value="로그아웃" style="text;html=1;align=center;verticalAlign=middle;resizable=0;points=[];autosize=1;strokeColor=none;fillColor=none;" vertex="1" parent="1">
          <mxGeometry x="1065" y="190" width="70" height="30" as="geometry" />
        </mxCell>
        <mxCell id="JrVokdhGePlw0w1_8iaF-49" value="회원가입" style="text;html=1;align=center;verticalAlign=middle;resizable=0;points=[];autosize=1;strokeColor=none;fillColor=none;" vertex="1" parent="1">
          <mxGeometry x="1161" y="160" width="70" height="30" as="geometry" />
        </mxCell>
        <mxCell id="JrVokdhGePlw0w1_8iaF-50" value="회원탈퇴" style="text;html=1;align=center;verticalAlign=middle;resizable=0;points=[];autosize=1;strokeColor=none;fillColor=none;" vertex="1" parent="1">
          <mxGeometry x="1065" y="220" width="70" height="30" as="geometry" />
        </mxCell>
        <mxCell id="JrVokdhGePlw0w1_8iaF-51" value="개인정보 조회" style="text;html=1;align=center;verticalAlign=middle;resizable=0;points=[];autosize=1;strokeColor=none;fillColor=none;" vertex="1" parent="1">
          <mxGeometry x="1060" y="250" width="100" height="30" as="geometry" />
        </mxCell>
        <mxCell id="JrVokdhGePlw0w1_8iaF-52" value="개인정보 수정" style="text;html=1;align=center;verticalAlign=middle;resizable=0;points=[];autosize=1;strokeColor=none;fillColor=none;" vertex="1" parent="1">
          <mxGeometry x="1060" y="280" width="100" height="30" as="geometry" />
        </mxCell>
        <mxCell id="JrVokdhGePlw0w1_8iaF-53" value="판매자 계정전환" style="text;html=1;align=center;verticalAlign=middle;resizable=0;points=[];autosize=1;strokeColor=none;fillColor=none;" vertex="1" parent="1">
          <mxGeometry x="1060" y="310" width="110" height="30" as="geometry" />
        </mxCell>
        <mxCell id="JrVokdhGePlw0w1_8iaF-54" value="일반 계정 전환" style="text;html=1;align=center;verticalAlign=middle;resizable=0;points=[];autosize=1;strokeColor=none;fillColor=none;" vertex="1" parent="1">
          <mxGeometry x="1065" y="340" width="100" height="30" as="geometry" />
        </mxCell>
      </root>
    </mxGraphModel>
  </diagram>
  <diagram id="jhZYRzldCcTrZba2orhK" name="페이지-2">
    <mxGraphModel dx="1434" dy="1949" grid="1" gridSize="10" guides="1" tooltips="1" connect="1" arrows="1" fold="1" page="1" pageScale="1" pageWidth="827" pageHeight="1169" math="0" shadow="0">
      <root>
        <mxCell id="0" />
        <mxCell id="1" parent="0" />
        <mxCell id="VEoYcCsq3fuXJxmSE1mA-3" value="애완동물 시스템" style="shape=umlFrame;whiteSpace=wrap;html=1;pointerEvents=0;width=100;height=30;" vertex="1" parent="1">
          <mxGeometry x="280" y="-10" width="680" height="520" as="geometry" />
        </mxCell>
        <mxCell id="VEoYcCsq3fuXJxmSE1mA-5" value="비회원" style="shape=umlActor;verticalLabelPosition=bottom;verticalAlign=top;html=1;" vertex="1" parent="1">
          <mxGeometry x="160" y="180" width="30" height="60" as="geometry" />
        </mxCell>
        <mxCell id="VEoYcCsq3fuXJxmSE1mA-6" value="회원" style="shape=umlActor;verticalLabelPosition=bottom;verticalAlign=top;html=1;" vertex="1" parent="1">
          <mxGeometry x="150" y="430" width="30" height="60" as="geometry" />
        </mxCell>
        <mxCell id="VEoYcCsq3fuXJxmSE1mA-7" value="판매자" style="shape=umlActor;verticalLabelPosition=bottom;verticalAlign=top;html=1;" vertex="1" parent="1">
          <mxGeometry x="1020" y="180" width="30" height="60" as="geometry" />
        </mxCell>
        <mxCell id="VEoYcCsq3fuXJxmSE1mA-8" value="관리자" style="shape=umlActor;verticalLabelPosition=bottom;verticalAlign=top;html=1;" vertex="1" parent="1">
          <mxGeometry x="1020" y="400" width="30" height="60" as="geometry" />
        </mxCell>
        <mxCell id="VEoYcCsq3fuXJxmSE1mA-10" value="애완용품 조회" style="ellipse;whiteSpace=wrap;html=1;" vertex="1" parent="1">
          <mxGeometry x="320" y="200" width="110" height="50" as="geometry" />
        </mxCell>
        <mxCell id="ys1qZjX4f6tbVUqkirAa-2" value="애완용품 구매" style="ellipse;whiteSpace=wrap;html=1;" vertex="1" parent="1">
          <mxGeometry x="320" y="260" width="110" height="50" as="geometry" />
        </mxCell>
        <mxCell id="ys1qZjX4f6tbVUqkirAa-3" value="나의 구매 내역 조회" style="ellipse;whiteSpace=wrap;html=1;" vertex="1" parent="1">
          <mxGeometry x="320" y="320" width="110" height="50" as="geometry" />
        </mxCell>
        <mxCell id="ys1qZjX4f6tbVUqkirAa-4" value="구매 취소" style="ellipse;whiteSpace=wrap;html=1;" vertex="1" parent="1">
          <mxGeometry x="320" y="380" width="110" height="50" as="geometry" />
        </mxCell>
        <mxCell id="ys1qZjX4f6tbVUqkirAa-5" value="구매 확정" style="ellipse;whiteSpace=wrap;html=1;" vertex="1" parent="1">
          <mxGeometry x="320" y="440" width="110" height="50" as="geometry" />
        </mxCell>
        <mxCell id="ys1qZjX4f6tbVUqkirAa-6" value="use" style="html=1;verticalAlign=bottom;endArrow=open;curved=0;rounded=0;exitX=1;exitY=0.3333333333333333;exitDx=0;exitDy=0;exitPerimeter=0;entryX=0.051;entryY=0.628;entryDx=0;entryDy=0;entryPerimeter=0;endFill=0;" edge="1" parent="1" source="VEoYcCsq3fuXJxmSE1mA-5" target="VEoYcCsq3fuXJxmSE1mA-10">
          <mxGeometry width="80" relative="1" as="geometry">
            <mxPoint x="210" y="224.76" as="sourcePoint" />
            <mxPoint x="290" y="224.76" as="targetPoint" />
          </mxGeometry>
        </mxCell>
        <mxCell id="ys1qZjX4f6tbVUqkirAa-7" value="use" style="html=1;verticalAlign=bottom;endArrow=open;curved=0;rounded=0;exitX=1;exitY=0.3333333333333333;exitDx=0;exitDy=0;exitPerimeter=0;entryX=0;entryY=0.5;entryDx=0;entryDy=0;endFill=0;" edge="1" parent="1" source="VEoYcCsq3fuXJxmSE1mA-6" target="ys1qZjX4f6tbVUqkirAa-4">
          <mxGeometry width="80" relative="1" as="geometry">
            <mxPoint x="200" y="460" as="sourcePoint" />
            <mxPoint x="336" y="491" as="targetPoint" />
          </mxGeometry>
        </mxCell>
        <mxCell id="ys1qZjX4f6tbVUqkirAa-8" value="use" style="html=1;verticalAlign=bottom;endArrow=open;curved=0;rounded=0;exitX=1;exitY=0.3333333333333333;exitDx=0;exitDy=0;exitPerimeter=0;entryX=0;entryY=0.5;entryDx=0;entryDy=0;endFill=0;" edge="1" parent="1" source="VEoYcCsq3fuXJxmSE1mA-6" target="ys1qZjX4f6tbVUqkirAa-3">
          <mxGeometry width="80" relative="1" as="geometry">
            <mxPoint x="184" y="414.5" as="sourcePoint" />
            <mxPoint x="320" y="445.5" as="targetPoint" />
          </mxGeometry>
        </mxCell>
        <mxCell id="ys1qZjX4f6tbVUqkirAa-11" value="use" style="html=1;verticalAlign=bottom;endArrow=open;curved=0;rounded=0;entryX=0;entryY=0.5;entryDx=0;entryDy=0;endFill=0;" edge="1" parent="1" target="ys1qZjX4f6tbVUqkirAa-5">
          <mxGeometry width="80" relative="1" as="geometry">
            <mxPoint x="180" y="450" as="sourcePoint" />
            <mxPoint x="340" y="445" as="targetPoint" />
          </mxGeometry>
        </mxCell>
        <mxCell id="ys1qZjX4f6tbVUqkirAa-12" value="use" style="html=1;verticalAlign=bottom;endArrow=open;curved=0;rounded=0;entryX=-0.001;entryY=0.57;entryDx=0;entryDy=0;endFill=0;entryPerimeter=0;" edge="1" parent="1" target="ys1qZjX4f6tbVUqkirAa-2">
          <mxGeometry width="80" relative="1" as="geometry">
            <mxPoint x="180" y="450" as="sourcePoint" />
            <mxPoint x="300" y="310" as="targetPoint" />
          </mxGeometry>
        </mxCell>
        <mxCell id="ys1qZjX4f6tbVUqkirAa-13" value="전체 조회&lt;span style=&quot;color: rgba(0, 0, 0, 0); font-family: monospace; font-size: 0px; text-align: start; text-wrap-mode: nowrap;&quot;&gt;%3CmxGraphModel%3E%3Croot%3E%3CmxCell%20id%3D%220%22%2F%3E%3CmxCell%20id%3D%221%22%20parent%3D%220%22%2F%3E%3CmxCell%20id%3D%222%22%20value%3D%22use%22%20style%3D%22html%3D1%3BverticalAlign%3Dbottom%3BendArrow%3Dopen%3Bcurved%3D0%3Brounded%3D0%3BexitX%3D1%3BexitY%3D0.3333333333333333%3BexitDx%3D0%3BexitDy%3D0%3BexitPerimeter%3D0%3BentryX%3D0%3BentryY%3D0.5%3BentryDx%3D0%3BentryDy%3D0%3BendFill%3D0%3B%22%20edge%3D%221%22%20parent%3D%221%22%3E%3CmxGeometry%20width%3D%2280%22%20relative%3D%221%22%20as%3D%22geometry%22%3E%3CmxPoint%20x%3D%22180%22%20y%3D%22450%22%20as%3D%22sourcePoint%22%2F%3E%3CmxPoint%20x%3D%22320%22%20y%3D%22405%22%20as%3D%22targetPoint%22%2F%3E%3C%2FmxGeometry%3E%3C%2FmxCell%3E%3C%2Froot%3E%3C%2FmxGraphModel%3E&lt;/span&gt;" style="ellipse;whiteSpace=wrap;html=1;" vertex="1" parent="1">
          <mxGeometry x="530" y="200" width="70" height="50" as="geometry" />
        </mxCell>
        <mxCell id="ys1qZjX4f6tbVUqkirAa-14" value="키워드 조회" style="ellipse;whiteSpace=wrap;html=1;" vertex="1" parent="1">
          <mxGeometry x="460" y="140" width="70" height="50" as="geometry" />
        </mxCell>
        <mxCell id="ys1qZjX4f6tbVUqkirAa-15" value="Extends" style="endArrow=open;endSize=12;dashed=1;html=1;rounded=0;entryX=0.5;entryY=0;entryDx=0;entryDy=0;exitX=0.012;exitY=0.57;exitDx=0;exitDy=0;exitPerimeter=0;" edge="1" parent="1" source="ys1qZjX4f6tbVUqkirAa-14" target="VEoYcCsq3fuXJxmSE1mA-10">
          <mxGeometry width="160" relative="1" as="geometry">
            <mxPoint x="295" y="170" as="sourcePoint" />
            <mxPoint x="455" y="170" as="targetPoint" />
          </mxGeometry>
        </mxCell>
        <mxCell id="ys1qZjX4f6tbVUqkirAa-16" value="Extends" style="endArrow=open;endSize=12;dashed=1;html=1;rounded=0;entryX=1;entryY=0.5;entryDx=0;entryDy=0;exitX=0;exitY=0.5;exitDx=0;exitDy=0;" edge="1" parent="1" source="ys1qZjX4f6tbVUqkirAa-13" target="VEoYcCsq3fuXJxmSE1mA-10">
          <mxGeometry width="160" relative="1" as="geometry">
            <mxPoint x="480" y="229" as="sourcePoint" />
            <mxPoint x="394" y="260" as="targetPoint" />
          </mxGeometry>
        </mxCell>
        <mxCell id="ys1qZjX4f6tbVUqkirAa-17" value="로그인" style="ellipse;whiteSpace=wrap;html=1;" vertex="1" parent="1">
          <mxGeometry x="580" y="320" width="110" height="50" as="geometry" />
        </mxCell>
        <mxCell id="ys1qZjX4f6tbVUqkirAa-18" value="Include" style="endArrow=open;endSize=12;dashed=1;html=1;rounded=0;entryX=1;entryY=0.5;entryDx=0;entryDy=0;exitX=0;exitY=0.5;exitDx=0;exitDy=0;" edge="1" parent="1" source="ys1qZjX4f6tbVUqkirAa-17" target="ys1qZjX4f6tbVUqkirAa-2">
          <mxGeometry width="160" relative="1" as="geometry">
            <mxPoint x="545" y="284.76" as="sourcePoint" />
            <mxPoint x="445" y="284.76" as="targetPoint" />
          </mxGeometry>
        </mxCell>
        <mxCell id="ys1qZjX4f6tbVUqkirAa-19" value="Include" style="endArrow=open;endSize=12;dashed=1;html=1;rounded=0;entryX=1;entryY=0.5;entryDx=0;entryDy=0;exitX=0.007;exitY=0.57;exitDx=0;exitDy=0;exitPerimeter=0;" edge="1" parent="1" source="ys1qZjX4f6tbVUqkirAa-17" target="ys1qZjX4f6tbVUqkirAa-3">
          <mxGeometry width="160" relative="1" as="geometry">
            <mxPoint x="590" y="400" as="sourcePoint" />
            <mxPoint x="440" y="340" as="targetPoint" />
          </mxGeometry>
        </mxCell>
        <mxCell id="ys1qZjX4f6tbVUqkirAa-20" value="Include" style="endArrow=open;endSize=12;dashed=1;html=1;rounded=0;entryX=1;entryY=0.5;entryDx=0;entryDy=0;exitX=0.059;exitY=0.78;exitDx=0;exitDy=0;exitPerimeter=0;" edge="1" parent="1" source="ys1qZjX4f6tbVUqkirAa-17" target="ys1qZjX4f6tbVUqkirAa-4">
          <mxGeometry width="160" relative="1" as="geometry">
            <mxPoint x="590" y="435" as="sourcePoint" />
            <mxPoint x="440" y="375" as="targetPoint" />
          </mxGeometry>
        </mxCell>
        <mxCell id="ys1qZjX4f6tbVUqkirAa-21" value="Include" style="endArrow=open;endSize=12;dashed=1;html=1;rounded=0;entryX=1;entryY=0.5;entryDx=0;entryDy=0;exitX=0;exitY=1;exitDx=0;exitDy=0;" edge="1" parent="1" source="ys1qZjX4f6tbVUqkirAa-17" target="ys1qZjX4f6tbVUqkirAa-5">
          <mxGeometry width="160" relative="1" as="geometry">
            <mxPoint x="600" y="450" as="sourcePoint" />
            <mxPoint x="450" y="390" as="targetPoint" />
          </mxGeometry>
        </mxCell>
        <mxCell id="ys1qZjX4f6tbVUqkirAa-22" value="애완 용품 서비스" style="ellipse;whiteSpace=wrap;html=1;" vertex="1" parent="1">
          <mxGeometry x="730" y="130" width="110" height="50" as="geometry" />
        </mxCell>
        <mxCell id="ys1qZjX4f6tbVUqkirAa-36" value="" style="rounded=0;orthogonalLoop=1;jettySize=auto;html=1;endArrow=block;endFill=0;" edge="1" parent="1" source="ys1qZjX4f6tbVUqkirAa-25" target="ys1qZjX4f6tbVUqkirAa-22">
          <mxGeometry relative="1" as="geometry" />
        </mxCell>
        <mxCell id="ys1qZjX4f6tbVUqkirAa-25" value="물품등록" style="ellipse;whiteSpace=wrap;html=1;" vertex="1" parent="1">
          <mxGeometry x="690" y="260" width="70" height="50" as="geometry" />
        </mxCell>
        <mxCell id="ys1qZjX4f6tbVUqkirAa-29" style="rounded=0;orthogonalLoop=1;jettySize=auto;html=1;endArrow=block;endFill=0;" edge="1" parent="1" source="ys1qZjX4f6tbVUqkirAa-26" target="ys1qZjX4f6tbVUqkirAa-22">
          <mxGeometry relative="1" as="geometry" />
        </mxCell>
        <mxCell id="ys1qZjX4f6tbVUqkirAa-26" value="물품 조회" style="ellipse;whiteSpace=wrap;html=1;" vertex="1" parent="1">
          <mxGeometry x="780" y="260" width="70" height="50" as="geometry" />
        </mxCell>
        <mxCell id="ys1qZjX4f6tbVUqkirAa-30" value="" style="rounded=0;orthogonalLoop=1;jettySize=auto;html=1;endArrow=block;endFill=0;" edge="1" parent="1" source="ys1qZjX4f6tbVUqkirAa-27" target="ys1qZjX4f6tbVUqkirAa-22">
          <mxGeometry relative="1" as="geometry" />
        </mxCell>
        <mxCell id="ys1qZjX4f6tbVUqkirAa-27" value="물품 수정" style="ellipse;whiteSpace=wrap;html=1;" vertex="1" parent="1">
          <mxGeometry x="860" y="240" width="70" height="50" as="geometry" />
        </mxCell>
        <mxCell id="ys1qZjX4f6tbVUqkirAa-38" style="rounded=0;orthogonalLoop=1;jettySize=auto;html=1;entryX=1;entryY=1;entryDx=0;entryDy=0;endArrow=block;endFill=0;" edge="1" parent="1" source="ys1qZjX4f6tbVUqkirAa-28" target="ys1qZjX4f6tbVUqkirAa-22">
          <mxGeometry relative="1" as="geometry" />
        </mxCell>
        <mxCell id="ys1qZjX4f6tbVUqkirAa-28" value="물품 삭제" style="ellipse;whiteSpace=wrap;html=1;" vertex="1" parent="1">
          <mxGeometry x="880" y="185" width="70" height="50" as="geometry" />
        </mxCell>
        <mxCell id="ys1qZjX4f6tbVUqkirAa-39" value="use" style="html=1;verticalAlign=bottom;endArrow=open;curved=0;rounded=0;entryX=0.999;entryY=0.418;entryDx=0;entryDy=0;endFill=0;exitX=0;exitY=0.3333333333333333;exitDx=0;exitDy=0;exitPerimeter=0;entryPerimeter=0;" edge="1" parent="1" source="VEoYcCsq3fuXJxmSE1mA-7" target="ys1qZjX4f6tbVUqkirAa-22">
          <mxGeometry width="80" relative="1" as="geometry">
            <mxPoint x="850" y="157.5" as="sourcePoint" />
            <mxPoint x="990" y="172.5" as="targetPoint" />
          </mxGeometry>
        </mxCell>
        <mxCell id="ys1qZjX4f6tbVUqkirAa-40" value="Include" style="endArrow=open;endSize=12;dashed=1;html=1;rounded=0;entryX=0;entryY=0.5;entryDx=0;entryDy=0;exitX=0.5;exitY=0;exitDx=0;exitDy=0;" edge="1" parent="1" source="ys1qZjX4f6tbVUqkirAa-17" target="ys1qZjX4f6tbVUqkirAa-22">
          <mxGeometry width="160" relative="1" as="geometry">
            <mxPoint x="650" y="310" as="sourcePoint" />
            <mxPoint x="500" y="250" as="targetPoint" />
          </mxGeometry>
        </mxCell>
        <mxCell id="ys1qZjX4f6tbVUqkirAa-41" value="계정 전환" style="ellipse;whiteSpace=wrap;html=1;" vertex="1" parent="1">
          <mxGeometry x="580" y="100" width="110" height="50" as="geometry" />
        </mxCell>
        <mxCell id="ys1qZjX4f6tbVUqkirAa-42" value="Include" style="endArrow=open;endSize=12;dashed=1;html=1;rounded=0;entryX=1;entryY=0.5;entryDx=0;entryDy=0;exitX=0.5;exitY=0;exitDx=0;exitDy=0;" edge="1" parent="1" source="ys1qZjX4f6tbVUqkirAa-22" target="ys1qZjX4f6tbVUqkirAa-41">
          <mxGeometry width="160" relative="1" as="geometry">
            <mxPoint x="630" y="155" as="sourcePoint" />
            <mxPoint x="725" y="-10" as="targetPoint" />
          </mxGeometry>
        </mxCell>
        <mxCell id="ys1qZjX4f6tbVUqkirAa-43" value="회원가입" style="ellipse;whiteSpace=wrap;html=1;" vertex="1" parent="1">
          <mxGeometry x="390" y="40" width="110" height="50" as="geometry" />
        </mxCell>
        <mxCell id="ys1qZjX4f6tbVUqkirAa-44" value="use" style="html=1;verticalAlign=bottom;endArrow=open;curved=0;rounded=0;entryX=0;entryY=0.5;entryDx=0;entryDy=0;endFill=0;" edge="1" parent="1" target="ys1qZjX4f6tbVUqkirAa-43">
          <mxGeometry width="80" relative="1" as="geometry">
            <mxPoint x="190" y="200" as="sourcePoint" />
            <mxPoint x="336" y="185" as="targetPoint" />
          </mxGeometry>
        </mxCell>
      </root>
    </mxGraphModel>
  </diagram>
</mxfile>
